<svg xmlns="http://www.w3.org/2000/svg" width="314.88" height="167.66" viewBox="0 0 314.88 167.66"><path d="M95.46,74.92c2.08-8.35,5-16.45,7.68-24.67-3.34,1.83-5.59,4.68-7.91,7.41-12,14.21-20.84,30.49-29.53,46.83-2.72,5.13-5.56,10.19-8.39,15.26a27.58,27.58,0,0,1-2.53,3.86c-1.43,1.77-3.09,3.54-5.58,3.29s-3-2.7-3.88-4.62c-1.33-3-1.34-6.22-1.44-9.43-.66-20.5,4.06-40,10.91-59.1.36-1,.68-2,1-3a3.38,3.38,0,0,0-.18-1.14c-2.07.67-2.86,2.51-4,3.94A305.94,305.94,0,0,0,26.33,92.58c-.51.94-1,1.87-1.57,2.79-.36.63-.79,1.37-1.62.88-.6-.34-.23-1-.11-1.57,2.25-10.44,4.38-21,9.82-30.31,9.79-16.67,20-33.08,34.21-46.56,3.25-3.1,6.8-6,11.63-6.36s7.41,1.75,7.52,6.7S84.79,27.51,83.29,32C79,44.92,73.77,57.55,70.5,70.82a11,11,0,0,0-.59,4.88c4-6,7.77-11.91,11.75-17.61a254.38,254.38,0,0,1,31.67-37.43c3.31-3.21,7-5.7,11.84-5.83s7,1.7,8.12,6.21,1.47,4.85,5.9,3.73c6.88-1.74,13.48-4.55,20.67-5.08,3.87-.28,7.61,0,11,2.09,5.86,3.64,5.84,9.38,0,12.94-5,3-10.66,3.85-16.15,5.26-7.93,2-15.83,4.1-23.59,6.7a4,4,0,0,0-3,3.06c-1.21,4.33-2.82,8.55-4.21,12.83a4.89,4.89,0,0,1-3.75,3.73c-8.49,2.12-16.41,5.92-24.72,8.59Z" fill="#263b97"/><path d="M0,103A163.51,163.51,0,0,1,22.77,25.53a55.89,55.89,0,0,1,8.79-11.14,12.21,12.21,0,0,1,3.35-2.59c3.59-1.6,7.47-2.42,10.76.31,3.07,2.54,2.6,6.19,1.49,9.57a132.24,132.24,0,0,1-9.67,21.71C25.13,66.16,19.07,90.72,15.75,116.15A28.78,28.78,0,0,1,9.36,131C7,133.9,5.65,133.67,4,130.31-.08,121.79,0,112.63,0,103Z" fill="#263b97"/><path d="M128.85,139.28c1.07,2.47-.13,3.83-1.62,5.16-8.14,7.29-20.64,6-28.49-2.9-6-6.83-8.32-15.06-8.91-23.85a109.87,109.87,0,0,1,.67-19.52c.25-2.21,1.09-3.3,3.31-3.78,6.48-1.41,12.91-3,19.68-4.61.11,2.09-.77,3.76-1.28,5.47-2.87,9.55-5.31,19.18-5.69,29.22a34.32,34.32,0,0,0,.23,7.44c1.67,9.26,10.11,13.58,18.5,9.41C126.4,140.74,127.49,140.05,128.85,139.28Z" fill="#263b97"/><path d="M149.2,63.9c3.64,0,6.67.73,8,4.37,1.19,3.41-.44,6-2.88,8.16a11.17,11.17,0,0,1-6.73,2.95c-19.44,1.15-38,6.77-56.8,11.13-2,.45-3.95.79-5.93,1.17a1.81,1.81,0,0,1-2-.47c-.66-.88.06-1.63.54-2.22a26.62,26.62,0,0,1,7.76-6.15c13.58-7.6,28.41-11.83,43.32-15.75C139.4,65.8,144.28,64.23,149.2,63.9Z" fill="#263b97"/><path d="M95.45,74.89v0Z" fill="#263b97"/><text transform="translate(146.19 111.39)" font-size="133.89" fill="#1bb680" font-family="Gourmet">mfin</text><text transform="translate(9.59 165.32)" font-size="14" fill="#8e8e8e" font-family="Gotham-Light, Gotham" font-weight="300" letter-spacing="0.1em">A Mic<tspan x="45.89" y="0" letter-spacing="0.07em">r</tspan><tspan x="52.54" y="0">ofinan</tspan><tspan x="103.66" y="0" letter-spacing="0.08em">c</tspan><tspan x="112.84" y="0" letter-spacing="0.1em">e Management </tspan><tspan x="237.51" y="0" letter-spacing="0.08em">S</tspan><tspan x="247.66" y="0" letter-spacing="0.08em">y</tspan><tspan x="257.01" y="0" letter-spacing="0.09em">s</tspan><tspan x="265.23" y="0" letter-spacing="0.08em">t</tspan><tspan x="272.02" y="0" letter-spacing="0.1em">em</tspan></text><circle cx="2.82" cy="161.63" r="2.82" fill="#1bb680"/><circle cx="312.05" cy="161.63" r="2.82" fill="#1bb680"/></svg>